<svg width="200" height="200" xmlns="http://www.w3.org/2000/svg">
 <!-- Created with Method Draw - http://github.com/duopixel/Method-Draw/ -->
 <g>
  <title>background</title>
  <rect fill="none" id="canvas_background" height="202" width="202" y="-1" x="-1"/>
  <g display="none" overflow="visible" y="0" x="0" height="100%" width="100%" id="canvasGrid">
   <rect fill="url(#gridpattern)" stroke-width="0" y="0" x="0" height="100%" width="100%"/>
  </g>
 </g>
 <g>
  <title>Layer 1</title>
  <path stroke="#999999" id="svg_1" d="m54.429504,107.74472l91.071574,0.034341l-2.955294,4.313774l-85.126095,-0.103019l-2.99019,-4.245096l0.000004,0zm0.625854,-57.382972l89.854634,-0.103019l2.607682,4.425273l-95.104807,0.034341l2.642492,-4.356595zm-8.867555,28.753834l107.520159,-0.103019l-0.138982,4.425277l-107.311638,-0.068678l-0.069538,-4.25358zm107.609164,0.410442c0,29.296368 -24.135869,53.129261 -53.807738,53.129261c-29.659049,0 -53.790421,-23.837201 -53.790421,-53.129261c0,-29.292203 24.135733,-53.125093 53.790421,-53.125093c29.671872,-0.004304 53.807738,23.83289 53.807738,53.125093zm-53.803513,-57.382976c-32.026599,0 -58.088549,25.739592 -58.088549,57.378661c0,31.64338 26.061954,57.382969 58.088549,57.382969c32.044038,0 58.101638,-25.739589 58.101638,-57.382969c0,-31.639069 -26.057596,-57.378661 -58.101638,-57.378661zm16.301277,57.382976c0,31.305608 -8.587811,53.129261 -16.301277,53.129261c-7.704739,0 -16.292413,-21.823653 -16.292413,-53.129261c0,-31.314227 8.583442,-53.125093 16.292413,-53.125093c7.709112,-0.004304 16.301277,21.810866 16.301277,53.125093zm-16.301277,-57.382976c-13.379307,0 -20.599265,29.565647 -20.599265,57.378661c0,27.821506 7.219958,57.382969 20.599265,57.382969c13.379443,0 20.612486,-29.565763 20.612486,-57.382969c-0.004361,-27.813014 -7.233043,-57.378661 -20.612486,-57.378661zm38.177514,57.382976c0,29.296368 -17.132285,53.129261 -38.177514,53.129261c-21.040856,0 -38.164425,-23.837201 -38.164425,-53.129261c0,-29.292203 17.123569,-53.125093 38.164425,-53.125093c21.045229,-0.004304 38.177514,23.83289 38.177514,53.125093zm-38.177514,-57.382976c-23.412904,0 -42.471273,25.739592 -42.471273,57.378661c0,31.64338 19.058369,57.382969 42.471273,57.382969c23.421627,0 42.475767,-25.739589 42.475767,-57.382969c0,-31.639069 -19.05414,-57.378661 -42.475767,-57.378661z" stroke-width="1.5" fill="#999999"/>
  <text stroke="#000" transform="matrix(1.7769880294799805,0,0,1,-51.60900177061558,0) " font-weight="bold" xml:space="preserve" text-anchor="start" font-family="'Trebuchet MS', Gadget, sans-serif" font-size="24" id="svg_2" y="168.779597" x="53.754944" stroke-opacity="null" stroke-width="0" fill="#666666">LOGO</text>
 </g>
</svg>